<?xml version="1.0" encoding="UTF-8" ?>
<!DOCTYPE svg PUBLIC "-//W3C//DTD SVG 1.1//EN" "http://www.w3.org/Graphics/SVG/1.1/DTD/svg11.dtd">
<svg width="324pt" height="216pt" viewBox="0 0 324 216" version="1.1" xmlns="http://www.w3.org/2000/svg">
<g id="#ffbd10ff">
<path fill="#ffbd10" opacity="1.00" d=" M 0.00 0.00 L 324.00 0.00 L 324.00 216.00 L 0.00 216.00 L 0.00 0.00 M 246.31 51.83 C 238.60 58.37 234.01 67.69 230.45 76.96 C 220.09 71.10 210.33 63.87 202.66 54.72 C 199.02 56.98 196.02 60.07 192.74 62.79 C 203.35 71.51 215.75 77.61 228.13 83.35 C 225.83 90.01 224.27 96.92 223.36 103.91 C 222.41 113.79 223.64 123.80 226.34 133.33 C 214.75 139.24 202.79 144.76 192.75 153.21 C 195.95 155.95 199.03 158.85 202.51 161.26 C 208.48 151.32 218.64 145.02 228.67 139.78 C 232.26 149.31 238.42 158.10 246.80 164.00 C 248.73 162.67 250.63 161.28 252.44 159.79 C 244.42 154.00 238.46 145.52 234.64 136.47 C 247.12 131.42 259.89 127.05 273.02 124.01 C 271.72 119.43 270.74 114.77 270.28 110.03 C 276.48 109.33 282.73 109.34 288.97 109.39 C 289.40 113.51 289.62 117.65 289.63 121.80 C 293.03 121.01 295.95 122.75 298.13 125.20 C 296.81 120.00 295.80 114.73 294.12 109.63 C 299.27 109.98 304.35 110.99 309.51 111.40 C 304.67 107.72 298.62 106.77 292.96 105.10 C 290.57 100.92 289.76 95.66 285.77 92.49 C 286.77 96.52 287.79 100.55 288.46 104.65 C 282.48 103.96 276.44 103.98 270.44 103.54 C 271.11 99.67 271.96 95.84 273.00 92.05 C 260.39 89.84 248.08 85.86 236.61 80.17 C 240.68 71.03 245.55 61.88 253.22 55.22 C 250.93 54.06 248.63 52.92 246.31 51.83 M 67.84 52.56 C 66.38 58.35 63.51 64.22 57.96 67.05 C 62.56 76.40 64.42 86.75 66.41 96.89 C 61.87 99.18 57.26 101.90 52.06 102.11 C 48.36 102.30 45.53 99.52 42.55 97.80 C 42.93 102.81 43.12 107.84 43.04 112.86 C 51.98 111.26 60.86 114.52 68.80 118.35 C 70.31 124.06 69.91 130.11 70.28 135.99 C 70.69 142.97 69.81 149.91 69.07 156.84 C 69.68 156.89 70.90 157.00 71.51 157.05 C 74.37 145.68 75.86 133.99 76.21 122.29 C 87.58 128.25 97.89 136.01 107.99 143.89 C 112.37 147.23 116.26 151.20 120.89 154.22 C 113.26 142.41 102.86 132.70 91.99 123.92 C 87.09 120.27 82.30 116.40 76.84 113.61 C 76.06 108.40 76.57 103.11 75.91 97.89 C 90.68 91.04 105.42 84.07 119.48 75.84 C 118.94 69.98 118.16 64.15 117.42 58.31 C 114.82 64.33 109.74 68.69 104.72 72.67 C 95.52 79.80 85.66 86.02 75.61 91.88 C 74.13 78.59 72.15 65.27 67.84 52.56 M 190.57 104.62 C 184.16 103.43 178.26 106.79 172.97 109.95 C 175.36 115.41 174.90 121.41 174.40 127.19 C 178.11 120.85 183.09 115.25 189.58 111.67 C 189.50 115.71 189.62 119.75 190.19 123.75 C 195.66 123.63 200.81 125.54 205.97 127.04 C 200.97 122.11 196.44 116.47 194.83 109.46 C 199.08 108.23 203.46 107.64 207.88 107.57 C 203.56 106.32 199.13 105.49 194.69 104.85 C 194.33 102.72 193.97 100.59 193.61 98.46 C 192.60 100.51 191.59 102.57 190.57 104.62 Z" />
<path fill="#ffbd10" opacity="1.00" d=" M 234.09 85.84 C 244.26 90.04 254.69 93.73 265.44 96.12 C 264.80 98.72 264.22 101.32 263.69 103.94 C 258.95 104.28 254.17 104.74 249.62 106.20 C 252.26 108.62 255.66 110.83 255.71 114.84 C 258.07 113.18 260.76 112.09 263.51 111.27 C 264.09 114.15 264.71 117.03 265.43 119.88 C 253.99 122.41 242.90 126.29 232.08 130.75 C 230.00 126.14 229.45 121.04 229.07 116.05 C 228.57 105.77 229.95 95.32 234.09 85.84 Z" />
<path fill="#ffbd10" opacity="1.00" d=" M 58.41 105.53 C 61.29 104.33 64.16 103.11 67.03 101.88 C 67.47 104.19 67.86 106.51 68.24 108.83 C 65.04 107.52 61.77 106.38 58.41 105.53 Z" />
</g>
<g id="#e71810ff">
<path fill="#e71810" opacity="1.00" d=" M 246.31 51.83 C 248.63 52.92 250.93 54.06 253.22 55.22 C 245.55 61.88 240.68 71.03 236.61 80.17 C 248.08 85.86 260.39 89.84 273.00 92.05 C 271.96 95.84 271.11 99.67 270.44 103.54 C 276.44 103.98 282.48 103.96 288.46 104.65 C 287.79 100.55 286.77 96.52 285.77 92.49 C 289.76 95.66 290.57 100.92 292.96 105.10 C 298.62 106.77 304.67 107.72 309.51 111.40 C 304.35 110.99 299.27 109.98 294.12 109.63 C 295.80 114.73 296.81 120.00 298.13 125.20 C 295.95 122.75 293.03 121.01 289.63 121.80 C 289.62 117.65 289.40 113.51 288.97 109.39 C 282.73 109.34 276.48 109.33 270.28 110.03 C 270.74 114.77 271.72 119.43 273.02 124.01 C 259.89 127.05 247.12 131.42 234.64 136.47 C 238.46 145.52 244.42 154.00 252.44 159.79 C 250.63 161.28 248.73 162.67 246.80 164.00 C 238.42 158.10 232.26 149.31 228.67 139.78 C 218.64 145.02 208.48 151.32 202.51 161.26 C 199.03 158.85 195.95 155.95 192.75 153.21 C 202.79 144.76 214.75 139.24 226.34 133.33 C 223.64 123.80 222.41 113.79 223.36 103.91 C 224.27 96.92 225.83 90.01 228.13 83.35 C 215.75 77.61 203.35 71.51 192.74 62.79 C 196.02 60.07 199.02 56.98 202.66 54.72 C 210.33 63.87 220.09 71.10 230.45 76.96 C 234.01 67.69 238.60 58.37 246.31 51.83 M 234.09 85.84 C 229.95 95.32 228.57 105.77 229.07 116.05 C 229.45 121.04 230.00 126.14 232.08 130.75 C 242.90 126.29 253.99 122.41 265.43 119.88 C 264.71 117.03 264.09 114.15 263.51 111.27 C 260.76 112.09 258.07 113.18 255.71 114.84 C 255.66 110.83 252.26 108.62 249.62 106.20 C 254.17 104.74 258.95 104.28 263.69 103.94 C 264.22 101.32 264.80 98.72 265.44 96.12 C 254.69 93.73 244.26 90.04 234.09 85.84 Z" />
<path fill="#e71810" opacity="1.00" d=" M 67.84 52.56 C 72.15 65.27 74.13 78.59 75.61 91.88 C 85.66 86.02 95.52 79.80 104.72 72.67 C 109.74 68.69 114.82 64.33 117.42 58.31 C 118.16 64.15 118.94 69.98 119.48 75.84 C 105.42 84.07 90.68 91.04 75.91 97.89 C 76.57 103.11 76.06 108.40 76.84 113.61 C 82.30 116.40 87.09 120.27 91.99 123.92 C 102.86 132.70 113.26 142.41 120.89 154.22 C 116.26 151.20 112.37 147.23 107.99 143.89 C 97.89 136.01 87.58 128.25 76.21 122.29 C 75.86 133.99 74.37 145.68 71.51 157.05 C 70.90 157.00 69.68 156.89 69.07 156.84 C 69.81 149.91 70.69 142.97 70.28 135.99 C 69.91 130.11 70.31 124.06 68.80 118.35 C 60.86 114.52 51.98 111.26 43.04 112.86 C 43.12 107.84 42.93 102.81 42.55 97.80 C 45.53 99.52 48.36 102.30 52.06 102.11 C 57.26 101.90 61.87 99.18 66.41 96.89 C 64.42 86.75 62.56 76.40 57.96 67.05 C 63.51 64.22 66.38 58.35 67.84 52.56 M 58.41 105.53 C 61.77 106.38 65.04 107.52 68.24 108.83 C 67.86 106.51 67.47 104.19 67.03 101.88 C 64.16 103.11 61.29 104.33 58.41 105.53 Z" />
<path fill="#e71810" opacity="1.00" d=" M 190.57 104.62 C 191.59 102.57 192.60 100.51 193.61 98.46 C 193.97 100.59 194.33 102.72 194.69 104.85 C 199.13 105.49 203.56 106.32 207.88 107.57 C 203.46 107.64 199.08 108.23 194.83 109.46 C 196.44 116.47 200.97 122.11 205.97 127.04 C 200.81 125.54 195.66 123.63 190.19 123.75 C 189.62 119.75 189.50 115.71 189.58 111.67 C 183.09 115.25 178.11 120.85 174.40 127.19 C 174.90 121.41 175.36 115.41 172.97 109.95 C 178.26 106.79 184.16 103.43 190.57 104.62 Z" />
</g>
</svg>
